<svg width="40" height="40" viewBox="0 0 40 40" fill="none" xmlns="http://www.w3.org/2000/svg">
<path d="M20 28.1634C22.1217 28.1634 24.1566 27.3034 25.6569 25.7725C27.1571 24.2416 28 22.1652 28 20.0002C28 17.8351 27.1571 15.7588 25.6569 14.2279C24.1566 12.697 22.1217 11.8369 20 11.8369C17.8783 11.8369 15.8434 12.697 14.3431 14.2279C12.8429 15.7588 12 17.8351 12 20.0002C12 22.1652 12.8429 24.2416 14.3431 25.7725C15.8434 27.3034 17.8783 28.1634 20 28.1634Z" stroke="#555555" stroke-width="3.75" stroke-linecap="round" stroke-linejoin="round"/>
<path d="M2 28.1634V11.8369C2 9.1306 3.05357 6.53516 4.92893 4.62152C6.8043 2.70788 9.34784 1.63281 12 1.63281H28C30.6522 1.63281 33.1957 2.70788 35.0711 4.62152C36.9464 6.53516 38 9.1306 38 11.8369V28.1634C38 30.8697 36.9464 33.4652 35.0711 35.3788C33.1957 37.2924 30.6522 38.3675 28 38.3675H12C9.34784 38.3675 6.8043 37.2924 4.92893 35.3788C3.05357 33.4652 2 30.8697 2 28.1634Z" stroke="#555555" stroke-width="3.75"/>
<path d="M31 8.79589L31.0204 8.77344" stroke="#555555" stroke-width="3.75" stroke-linecap="round" stroke-linejoin="round"/>
</svg>
