<svg width="40" height="40" viewBox="0 0 40 40" fill="none" xmlns="http://www.w3.org/2000/svg">
<path d="M12 16.0002V29.3335M28 29.3335V22.6668C28 21.2523 27.4381 19.8958 26.4379 18.8956C25.4377 17.8954 24.0812 17.3335 22.6667 17.3335C21.2522 17.3335 19.8957 17.8954 18.8955 18.8956C17.8953 19.8958 17.3334 21.2523 17.3334 22.6668V29.3335V16.0002M10.6667 12.0002H13.3334M4.00004 1.3335H36C36.7073 1.3335 37.3856 1.61445 37.8857 2.11454C38.3858 2.61464 38.6667 3.29292 38.6667 4.00016V36.0002C38.6667 36.7074 38.3858 37.3857 37.8857 37.8858C37.3856 38.3859 36.7073 38.6668 36 38.6668H4.00004C3.2928 38.6668 2.61452 38.3859 2.11442 37.8858C1.61433 37.3857 1.33337 36.7074 1.33337 36.0002V4.00016C1.33337 3.29292 1.61433 2.61464 2.11442 2.11454C2.61452 1.61445 3.2928 1.3335 4.00004 1.3335Z" stroke="#555555" stroke-width="4"/>
</svg>
