<svg width="670" height="670" viewBox="0 0 670 670" fill="none" xmlns="http://www.w3.org/2000/svg">
<path d="M335 0V670" stroke="#2A2A2A" stroke-width="2"/>
<path d="M670 335L-9.53674e-07 335" stroke="#2A2A2A" stroke-width="2"/>
<path d="M571.881 98.1193L98.1193 571.881" stroke="#2A2A2A" stroke-width="2"/>
<path d="M571.881 571.881L98.1194 98.1192" stroke="#2A2A2A" stroke-width="2"/>
<path d="M625.119 167.5L44.8821 502.5" stroke="#2A2A2A" stroke-width="2"/>
<path d="M502.5 625.118L167.5 44.8812" stroke="#2A2A2A" stroke-width="2"/>
<path d="M658.584 421.704L11.4137 248.296" stroke="#2A2A2A" stroke-width="2"/>
<path d="M248.295 658.585L421.704 11.4149" stroke="#2A2A2A" stroke-width="2"/>
<path d="M421.705 11.4148L248.296 658.585" stroke="#2A2A2A" stroke-width="2"/>
<path d="M658.586 421.704L11.4156 248.296" stroke="#2A2A2A" stroke-width="2"/>
<path d="M625.119 167.5L44.8821 502.5" stroke="#2A2A2A" stroke-width="2"/>
<path d="M502.5 625.118L167.5 44.8812" stroke="#2A2A2A" stroke-width="2"/>
<path d="M658.584 248.296L11.4136 421.704" stroke="#2A2A2A" stroke-width="2"/>
<path d="M421.705 658.585L248.296 11.4143" stroke="#2A2A2A" stroke-width="2"/>
<path d="M625.117 502.5L44.8802 167.5" stroke="#2A2A2A" stroke-width="2"/>
<path d="M167.5 625.119L502.5 44.8818" stroke="#2A2A2A" stroke-width="2"/>
</svg>
