<svg width="60" height="60" viewBox="0 0 60 60" fill="none" xmlns="http://www.w3.org/2000/svg">
<path d="M30 0L33.7424 12.3933L42.2021 2.59364L40.5801 15.4377L52.2943 9.92608L45.5885 21L58.5317 20.7295L47.9014 28.1185L59.8357 33.1359L47.119 35.5623L55.9808 45L43.3766 42.0443L47.6336 54.2705L37.3213 46.4438L36.2374 59.3444L30 48L23.7626 59.3444L22.6787 46.4438L12.3664 54.2705L16.6234 42.0443L4.01924 45L12.881 35.5623L0.164343 33.1359L12.0986 28.1185L1.4683 20.7295L14.4115 21L7.70566 9.92608L19.4199 15.4377L17.7979 2.59364L26.2576 12.3933L30 0Z" fill="#191919"/>
</svg>
