<?xml version="1.0" encoding="UTF-8"?>
<svg xmlns="http://www.w3.org/2000/svg" xmlns:xlink="http://www.w3.org/1999/xlink" width="276px" height="px" viewBox="0 0 325 205" version="1.1">
<g id="surface1">
<path style=" stroke:none;fill-rule:nonzero;fill:rgb(0%,0%,0%);fill-opacity:1;" d="M 113.699219 23.207031 C 116.023438 40.230469 110.285156 179.265625 109.605469 195.644531 C 109.605469 196.132812 109.523438 198.667969 107.480469 200.636719 C 105.84375 202.214844 103.933594 202.484375 103.320312 202.542969 L 73.914062 202.542969 C 70.445312 202.542969 67.636719 199.453125 67.636719 195.644531 L 67.636719 134.941406 C 67.636719 131.132812 64.828125 128.039062 61.359375 128.039062 C 57.890625 128.039062 55.082031 131.132812 55.082031 134.941406 L 55.082031 195.644531 C 55.082031 199.453125 52.273438 202.542969 48.804688 202.542969 L 19.390625 202.542969 C 15.925781 202.542969 13.113281 199.453125 13.113281 195.644531 C 8.742188 158.003906 4.371094 120.363281 0 82.722656 C 0.394531 80.148438 1.242188 76.503906 3.152344 72.558594 C 5.597656 67.515625 8.707031 64.230469 10.746094 62.390625 C 16.171875 57.152344 21.597656 51.914062 27.027344 46.675781 C 29.660156 43.972656 33.402344 43.074219 36.699219 44.371094 C 41.101562 46.089844 42.4375 50.828125 42.566406 51.3125 C 45.621094 68.945312 48.175781 83.222656 49.933594 93.640625 C 50.269531 95.644531 50.824219 99.230469 53.542969 100.914062 C 56.21875 102.566406 60.640625 102.1875 63.382812 99.492188 C 65.625 97.285156 65.84375 94.417969 65.871094 93.640625 C 64.070312 75.433594 62.261719 57.234375 60.460938 39.027344 C 60.195312 37.703125 59.9375 35.328125 61.195312 33.203125 C 62.078125 31.707031 63.324219 30.988281 65.125 29.996094 C 68.9375 27.875 71.894531 26.261719 73.921875 25.160156 C 82.875 21.3125 91.820312 17.476562 100.769531 13.628906 C 103.085938 12.347656 106.070312 11.316406 108.609375 12.574219 C 112.519531 14.503906 113.378906 20.84375 113.707031 23.214844 Z M 113.699219 23.207031 "/>
<path style=" stroke:none;fill-rule:nonzero;fill:rgb(0%,0%,0%);fill-opacity:1;" d="M 195.617188 23.664062 C 195.617188 23.664062 212.609375 144.496094 213.3125 151.214844 C 213.355469 151.648438 213.339844 151.613281 213.363281 151.828125 C 215.34375 175.074219 219.09375 193.570312 215.464844 198.546875 C 214.269531 200.1875 212.667969 200.964844 212.667969 200.964844 C 210.882812 201.839844 209.113281 201.742188 208.085938 201.601562 C 199.121094 201.644531 190.160156 201.699219 181.191406 201.742188 C 180.902344 201.765625 178.988281 201.871094 177.496094 200.390625 C 176.179688 199.09375 176.097656 197.476562 176.082031 197.125 C 176.082031 181.5625 176.066406 165.996094 176.066406 150.429688 C 175.835938 147.480469 173.382812 145.207031 170.433594 145.207031 L 167.332031 145.207031 C 164.402344 145.207031 161.957031 147.453125 161.703125 150.378906 C 161.898438 166.011719 162.101562 181.644531 162.292969 197.269531 C 162.332031 197.597656 162.4375 198.796875 161.660156 199.878906 C 160.859375 200.996094 159.433594 201.550781 157.96875 201.347656 C 147.199219 201.09375 136.429688 200.839844 125.664062 200.582031 C 124.640625 200.398438 122.390625 199.828125 120.515625 197.910156 C 116.84375 194.171875 117.996094 188.789062 118.101562 188.347656 C 123.257812 130.683594 128.414062 73.015625 133.5625 15.355469 C 133.53125 14.496094 133.496094 10.546875 136.484375 7.3125 C 138.464844 5.171875 140.796875 4.417969 141.832031 4.148438 C 156.636719 2.875 171.441406 1.59375 186.246094 0.324219 C 186.804688 0.179688 188.203125 -0.105469 189.78125 0.488281 C 192.253906 1.414062 193.140625 3.71875 193.285156 4.09375 C 194.136719 12.738281 195.046875 19.601562 195.625 23.664062 Z M 173.960938 113.148438 C 173.886719 112.484375 173.847656 111.980469 173.824219 111.898438 C 173.242188 109.609375 171.808594 96.476562 168.734375 61.335938 C 168.707031 61.273438 168.101562 60.1875 166.941406 60.136719 C 165.957031 60.085938 165 60.804688 164.714844 61.878906 C 163.632812 96.746094 162.863281 109.707031 162.316406 111.996094 C 162.292969 112.078125 162.257812 112.578125 162.199219 113.261719 C 161.890625 116.574219 164.5 119.433594 167.824219 119.433594 L 168.339844 119.433594 C 171.710938 119.433594 174.324219 116.5 173.960938 113.148438 Z M 173.960938 113.148438 "/>
<path style=" stroke:none;fill-rule:nonzero;fill:rgb(0%,0%,0%);fill-opacity:1;" d="M 315.007812 93.222656 L 284.167969 95.359375 C 280.53125 95.617188 277.359375 92.59375 277.085938 88.617188 L 275.359375 63.660156 C 274.707031 54.316406 273.832031 48.507812 272.734375 46.253906 C 271.636719 44.003906 269.476562 42.984375 266.277344 43.210938 C 262.65625 43.464844 260.449219 45.035156 259.671875 47.917969 C 258.886719 50.804688 258.828125 56.933594 259.476562 66.304688 L 265.425781 152.226562 C 266.046875 161.214844 266.945312 167.042969 268.109375 169.722656 C 269.273438 172.394531 271.5625 173.613281 274.976562 173.382812 C 278.25 173.15625 280.296875 171.628906 281.121094 168.808594 C 281.941406 165.988281 282 159.5 281.300781 149.34375 L 280.1875 133.292969 C 279.910156 129.320312 282.636719 125.894531 286.277344 125.636719 L 317.117188 123.5 C 320.753906 123.242188 323.925781 126.265625 324.199219 130.242188 L 324.199219 130.253906 C 325.53125 149.40625 325.230469 163.070312 323.3125 171.25 C 321.390625 179.429688 316.40625 186.828125 308.359375 193.445312 C 300.308594 200.058594 290.078125 203.792969 277.675781 204.65625 C 264.785156 205.550781 253.976562 203.734375 245.257812 199.214844 C 236.542969 194.695312 230.515625 188.011719 227.164062 179.175781 C 223.824219 170.335938 221.523438 156.851562 220.269531 138.726562 L 216.523438 84.683594 C 215.597656 71.355469 215.328125 61.328125 215.703125 54.597656 C 216.078125 47.878906 218.125 41.285156 221.84375 34.828125 C 225.566406 28.371094 230.976562 23.117188 238.082031 19.0625 C 245.191406 15.003906 253.515625 12.648438 263.066406 11.988281 C 276.03125 11.089844 286.910156 13.082031 295.730469 17.976562 C 304.539062 22.871094 310.554688 29.3125 313.769531 37.304688 C 316.980469 45.296875 319.1875 57.929688 320.382812 75.195312 L 321.097656 85.566406 C 321.375 89.539062 318.648438 92.964844 315.007812 93.222656 Z M 315.007812 93.222656 "/>
</g>
</svg>
