<?xml version="1.0" encoding="UTF-8"?>
<svg id="Capa_2" xmlns="http://www.w3.org/2000/svg" viewBox="0 0 434.91 273.6">
  <g id="Capa_2-2" data-name="Capa_2">
    <path d="M152.15,30.84c3.11,22.75-4.57,208.54-5.48,230.43,0,.65-.11,4.04-2.84,6.67-2.19,2.11-4.75,2.47-5.57,2.55h-39.35c-4.64,0-8.4-4.13-8.4-9.22v-81.12c0-5.09-3.76-9.22-8.4-9.22s-8.4,4.13-8.4,9.22v81.12c0,5.09-3.76,9.22-8.4,9.22H25.95c-4.64,0-8.4-4.13-8.4-9.22C11.7,210.97,5.85,160.67,0,110.37c.53-3.44,1.66-8.31,4.22-13.58,3.27-6.74,7.43-11.13,10.16-13.59,7.26-7,14.52-14,21.79-21,3.52-3.61,8.53-4.81,12.94-3.08,5.89,2.3,7.68,8.63,7.85,9.28,4.09,23.56,7.51,42.64,9.86,56.56.45,2.68,1.19,7.47,4.83,9.72,3.58,2.21,9.5,1.7,13.17-1.9,3-2.95,3.29-6.78,3.33-7.82-2.41-24.33-4.83-48.65-7.24-72.98-.36-1.77-.7-4.94.98-7.78,1.18-2,2.85-2.96,5.26-4.29,5.1-2.83,9.06-4.99,11.77-6.46,11.98-5.14,23.95-10.27,35.93-15.41,3.1-1.71,7.09-3.09,10.49-1.41,5.23,2.58,6.38,11.05,6.82,14.22Z"/>
    <path d="M261.77,31.45s22.74,161.47,23.68,170.45c.06.58.04.53.07.82,2.65,31.06,7.67,55.78,2.81,62.43-1.6,2.19-3.74,3.23-3.74,3.23-2.39,1.17-4.76,1.04-6.13.85-12,.06-23.99.13-35.99.19-.39.03-2.95.17-4.95-1.81-1.76-1.73-1.87-3.89-1.89-4.36,0-20.8-.02-41.6-.02-62.4-.31-3.94-3.59-6.98-7.54-6.98h-4.15c-3.92,0-7.19,3-7.53,6.91.26,20.89.53,41.78.79,62.66.05.44.19,2.04-.85,3.49-1.07,1.49-2.98,2.23-4.94,1.96-14.41-.34-28.82-.68-43.23-1.02-1.37-.25-4.38-1.01-6.89-3.57-4.91-5-3.37-12.19-3.23-12.78,6.9-77.06,13.8-154.12,20.69-231.17-.04-1.15-.09-6.43,3.91-10.75,2.65-2.86,5.77-3.87,7.16-4.23,19.81-1.7,39.62-3.41,59.43-5.11.75-.19,2.62-.57,4.73.22,3.31,1.24,4.5,4.32,4.69,4.82,1.14,11.55,2.36,20.72,3.13,26.15ZM232.79,151.03c-.1-.89-.15-1.56-.18-1.67-.78-3.06-2.7-20.61-6.81-67.57-.04-.08-.85-1.53-2.4-1.6-1.32-.07-2.6.89-2.98,2.33-1.45,46.59-2.48,63.91-3.21,66.97-.03.11-.08.78-.16,1.69-.41,4.43,3.08,8.25,7.53,8.25h.69c4.51,0,8.01-3.92,7.52-8.4Z"/>
    <path d="M421.54,124.4l-41.27,2.86c-4.87.34-9.11-3.7-9.48-9.01l-2.31-33.35c-.87-12.49-2.04-20.25-3.51-23.26-1.47-3.01-4.36-4.37-8.64-4.07-4.85.34-7.8,2.44-8.84,6.29-1.05,3.86-1.13,12.05-.26,24.57l7.96,114.82c.83,12.01,2.03,19.8,3.59,23.38,1.56,3.57,4.62,5.2,9.19,4.89,4.38-.3,7.12-2.34,8.22-6.11,1.1-3.77,1.18-12.44.24-26.01l-1.49-21.45c-.37-5.31,3.28-9.89,8.15-10.23l41.27-2.86c4.87-.34,9.11,3.7,9.48,9.01v.02c1.78,25.59,1.38,43.85-1.19,54.78-2.57,10.93-9.24,20.82-20.01,29.66-10.77,8.84-24.46,13.83-41.06,14.98-17.25,1.2-31.71-1.23-43.38-7.27-11.66-6.04-19.73-14.97-24.21-26.78-4.47-11.81-7.55-29.83-9.23-54.05l-5.01-72.22c-1.24-17.81-1.6-31.21-1.1-40.2.5-8.98,3.24-17.79,8.22-26.42,4.98-8.63,12.22-15.65,21.73-21.07,9.51-5.42,20.65-8.57,33.43-9.45,17.35-1.2,31.91,1.46,43.71,8,11.79,6.54,19.84,15.15,24.14,25.83,4.3,10.68,7.25,27.56,8.85,50.63l.96,13.86c.37,5.31-3.28,9.89-8.15,10.23Z"/>
  </g>
</svg>