<svg width="132" height="25" viewBox="0 0 132 25" fill="none" xmlns="http://www.w3.org/2000/svg">
<path fill-rule="evenodd" clip-rule="evenodd" d="M14.3219 15.0259L11.7532 7.02187L9.25188 15.0259H14.3219ZM23.7311 24.171H17.2166L15.7383 19.5844H7.80733L6.31781 24.171H0L7.16093 3.49761C7.41755 2.64548 7.88546 1.87206 8.52117 1.24928C9.40946 0.41909 10.5883 -0.0290194 11.8037 0.00145886C14.0521 0.00145886 15.5866 1.17621 16.4241 3.53134L23.7311 24.171Z" fill="white"/>
<path fill-rule="evenodd" clip-rule="evenodd" d="M46.7371 0.428638V19.4495C46.7371 21.0009 46.5778 22.0857 46.2593 22.704C45.9518 23.2642 45.4676 23.7069 44.8822 23.963C44.227 24.2939 43.5028 24.4653 42.7688 24.4633C42.1542 24.4945 41.5405 24.387 40.9732 24.1486C40.4059 23.9102 39.8996 23.5471 39.4919 23.0862C38.9971 22.4282 38.5572 21.7308 38.1766 21.0009L31.3585 8.94981V24.171H25.3555V5.50424C25.3555 4.31263 25.3555 3.5482 25.4173 3.21657C25.4842 2.8199 25.6232 2.43887 25.8276 2.0924C26.1641 1.48045 26.6854 0.99057 27.3171 0.692817C28.0257 0.340826 28.8081 0.163515 29.5992 0.175701C30.5123 0.137585 31.4121 0.404561 32.1567 0.934513C33.0581 1.73229 33.7951 2.69841 34.3263 3.77865L40.7284 15.0821V0.428638H46.7371Z" fill="white"/>
<path d="M56.3431 0.428711H50.3345V24.1767H56.3431V0.428711Z" fill="white"/>
<path fill-rule="evenodd" clip-rule="evenodd" d="M87.3646 24.171H81.3559V10.2876L77.4776 21.4562C77.2825 22.1001 77.0246 22.7233 76.7075 23.3167C76.1754 24.1261 75.2705 24.5308 73.9927 24.5308C72.7111 24.5308 71.7949 24.1148 71.2328 23.2829C70.8799 22.6904 70.5844 22.0655 70.3504 21.4168L65.893 10.119V24.171H59.8844V5.43681C59.8703 4.70135 59.8985 3.96568 59.9687 3.23345C60.0224 2.83678 60.1542 2.4547 60.3565 2.10928C60.7323 1.50784 61.2808 1.03377 61.9304 0.749039C62.6503 0.399711 63.4403 0.219018 64.2405 0.220682C64.9206 0.21652 65.5948 0.346399 66.2247 0.602898C66.7994 0.817429 67.3168 1.16175 67.7367 1.60903C67.9533 1.86945 68.1417 2.15206 68.2988 2.45215C68.4224 2.68823 68.6922 3.35148 69.1081 4.44192L73.7959 16.3019L77.8935 4.49813C78.242 3.47514 78.4556 2.81188 78.6074 2.57019C78.7795 2.22616 78.9969 1.90669 79.2537 1.62027C79.6956 1.1412 80.2387 0.766539 80.8434 0.523481C81.4481 0.280422 82.0994 0.175066 82.7499 0.215061C83.5799 0.204024 84.4013 0.384842 85.15 0.743419C85.8288 1.05161 86.3974 1.55946 86.78 2.19921C87.1548 2.84373 87.3421 3.9042 87.3421 5.3806L87.3646 24.171Z" fill="white"/>
<path fill-rule="evenodd" clip-rule="evenodd" d="M111.393 0.428711V15.1159C111.393 17.1394 111.107 18.6571 110.534 19.68C109.585 21.3462 108.144 22.6776 106.408 23.491C104.652 24.3588 102.717 24.8017 100.759 24.7838C98.5565 24.8176 96.3863 24.2522 94.4804 23.1481C92.7636 22.2457 91.4084 20.7814 90.6414 18.9999C90.2173 17.7333 90.0268 16.4001 90.0793 15.0653V0.428711H96.043V15.0991C96.0231 15.7857 96.0835 16.4724 96.2229 17.1451C96.3565 17.6218 96.5967 18.062 96.9255 18.4322C97.4009 18.9815 97.9953 19.4153 98.6634 19.7007C99.3315 19.986 100.056 20.1155 100.781 20.0791C101.509 20.1212 102.237 19.9856 102.901 19.684C103.564 19.3824 104.145 18.9238 104.592 18.3479C104.896 17.9597 105.115 17.5114 105.233 17.0326C105.369 16.3634 105.428 15.6806 105.407 14.9979V0.428711H111.393Z" fill="white"/>
<path fill-rule="evenodd" clip-rule="evenodd" d="M129.526 0.743436V5.69538C127.724 4.96319 125.805 4.55779 123.861 4.49815C122.75 4.43223 121.648 4.73235 120.724 5.35251C120.411 5.55808 120.152 5.836 119.969 6.16277C119.786 6.48954 119.685 6.85555 119.673 7.22987C119.658 7.54704 119.725 7.86272 119.868 8.14633C120.011 8.42994 120.224 8.67187 120.488 8.84867C121.45 9.36021 122.491 9.70605 123.568 9.87166C124.939 10.1331 126.292 10.4785 127.621 10.9059C128.393 11.193 129.106 11.6198 129.723 12.165C130.446 12.7601 131.026 13.5101 131.42 14.3594C131.814 15.2088 132.012 16.1358 131.999 17.0719C131.999 19.4664 130.92 21.3775 128.768 22.7883C126.943 23.9874 124.558 24.5851 121.612 24.5814C119.071 24.5188 116.549 24.1373 114.103 23.446V18.3872C117.175 19.4552 119.72 19.991 121.736 19.9948C122.804 20.0633 123.867 19.8024 124.782 19.2472C125.122 19.0367 125.403 18.744 125.599 18.3962C125.796 18.0485 125.901 17.6568 125.907 17.2574C125.907 16.33 125.395 15.6499 124.355 15.2227C123.327 14.8943 122.277 14.637 121.213 14.4526C118.178 13.8418 116.102 12.8207 114.985 11.3893C114.106 10.305 113.626 8.95177 113.625 7.55588C113.63 6.67901 113.809 5.8119 114.153 5.00512C114.496 4.19834 114.997 3.46806 115.626 2.85687C116.561 1.87907 117.718 1.14069 118.999 0.70409C120.531 0.223891 122.131 -0.00205977 123.737 0.0352112C125.687 0.048896 127.63 0.286527 129.526 0.743436Z" fill="white"/>
</svg>
